<?xml version="1.0" encoding="UTF-8" standalone="no" ?>
<!DOCTYPE svg PUBLIC "-//W3C//DTD SVG 1.1//EN" "http://www.w3.org/Graphics/SVG/1.1/DTD/svg11.dtd">
<svg xmlns="http://www.w3.org/2000/svg" xmlns:xlink="http://www.w3.org/1999/xlink" version="1.1" width="1080" height="1080" viewBox="0 0 1080 1080" xml:space="preserve">
<desc>Created with Fabric.js 5.2.4</desc>
<defs>
</defs>
<g transform="matrix(1 0 0 1 540 540)" id="337cc3e4-481d-4a9d-b6e5-44102d28fe00"  >
<rect style="stroke: none; stroke-width: 1; stroke-dasharray: none; stroke-linecap: butt; stroke-dashoffset: 0; stroke-linejoin: miter; stroke-miterlimit: 4; fill: rgb(255,255,255); fill-rule: nonzero; opacity: 1; visibility: hidden;" vector-effect="non-scaling-stroke"  x="-540" y="-540" rx="0" ry="0" width="1080" height="1080" />
</g>
<g transform="matrix(1 0 0 1 540 540)" id="27532626-feeb-4b2f-a83f-c40a01d06464"  >
</g>
<g transform="matrix(1 0 0 1 540 540)"  >
<g style="" vector-effect="non-scaling-stroke"   >
		<g transform="matrix(0.78 0 0 0.78 -388.57 -18.2)" id="0_0"  >
<rect style="stroke: rgb(0,0,0); stroke-width: 1; stroke-dasharray: none; stroke-linecap: butt; stroke-dashoffset: 0; stroke-linejoin: miter; stroke-miterlimit: 4; fill: rgb(160,160,160); fill-rule: nonzero; opacity: 0.8;" vector-effect="non-scaling-stroke"  x="-45" y="-45" rx="0" ry="0" width="90" height="90" />
</g>
		<g transform="matrix(0.78 0 0 0.78 -382.35 -11.97)" id="0_1"  >
<rect style="stroke: rgb(0,0,0); stroke-width: 1; stroke-dasharray: none; stroke-linecap: butt; stroke-dashoffset: 0; stroke-linejoin: miter; stroke-miterlimit: 4; fill: rgb(224,224,224); fill-rule: nonzero; opacity: 0.8;" vector-effect="non-scaling-stroke"  x="-45" y="-45" rx="0" ry="0" width="90" height="90" />
</g>
		<g transform="matrix(0.78 0 0 0.78 -376.13 -5.75)" id="0_2"  >
<rect style="stroke: rgb(0,0,0); stroke-width: 1; stroke-dasharray: none; stroke-linecap: butt; stroke-dashoffset: 0; stroke-linejoin: miter; stroke-miterlimit: 4; fill: rgb(160,160,160); fill-rule: nonzero; opacity: 0.8;" vector-effect="non-scaling-stroke"  x="-45" y="-45" rx="0" ry="0" width="90" height="90" />
</g>
		<g transform="matrix(0.78 0 0 0.78 -276.92 -33.76)" id="1_0"  >
<rect style="stroke: rgb(0,0,0); stroke-width: 1; stroke-dasharray: none; stroke-linecap: butt; stroke-dashoffset: 0; stroke-linejoin: miter; stroke-miterlimit: 4; fill: rgb(160,160,160); fill-rule: nonzero; opacity: 0.8;" vector-effect="non-scaling-stroke"  x="-42.5" y="-42.5" rx="0" ry="0" width="85" height="85" />
</g>
		<g transform="matrix(0.78 0 0 0.78 -270.69 -27.53)" id="1_1"  >
<rect style="stroke: rgb(0,0,0); stroke-width: 1; stroke-dasharray: none; stroke-linecap: butt; stroke-dashoffset: 0; stroke-linejoin: miter; stroke-miterlimit: 4; fill: rgb(224,224,224); fill-rule: nonzero; opacity: 0.8;" vector-effect="non-scaling-stroke"  x="-42.5" y="-42.5" rx="0" ry="0" width="85" height="85" />
</g>
		<g transform="matrix(0.78 0 0 0.78 -264.47 -21.31)" id="1_2"  >
<rect style="stroke: rgb(0,0,0); stroke-width: 1; stroke-dasharray: none; stroke-linecap: butt; stroke-dashoffset: 0; stroke-linejoin: miter; stroke-miterlimit: 4; fill: rgb(160,160,160); fill-rule: nonzero; opacity: 0.8;" vector-effect="non-scaling-stroke"  x="-42.5" y="-42.5" rx="0" ry="0" width="85" height="85" />
</g>
		<g transform="matrix(0.78 0 0 0.78 -258.25 -15.09)" id="1_3"  >
<rect style="stroke: rgb(0,0,0); stroke-width: 1; stroke-dasharray: none; stroke-linecap: butt; stroke-dashoffset: 0; stroke-linejoin: miter; stroke-miterlimit: 4; fill: rgb(224,224,224); fill-rule: nonzero; opacity: 0.8;" vector-effect="non-scaling-stroke"  x="-42.5" y="-42.5" rx="0" ry="0" width="85" height="85" />
</g>
		<g transform="matrix(0.78 0 0 0.78 -252.02 -8.86)" id="1_4"  >
<rect style="stroke: rgb(0,0,0); stroke-width: 1; stroke-dasharray: none; stroke-linecap: butt; stroke-dashoffset: 0; stroke-linejoin: miter; stroke-miterlimit: 4; fill: rgb(160,160,160); fill-rule: nonzero; opacity: 0.8;" vector-effect="non-scaling-stroke"  x="-42.5" y="-42.5" rx="0" ry="0" width="85" height="85" />
</g>
		<g transform="matrix(0.78 0 0 0.78 -245.8 -2.64)" id="1_5"  >
<rect style="stroke: rgb(0,0,0); stroke-width: 1; stroke-dasharray: none; stroke-linecap: butt; stroke-dashoffset: 0; stroke-linejoin: miter; stroke-miterlimit: 4; fill: rgb(224,224,224); fill-rule: nonzero; opacity: 0.8;" vector-effect="non-scaling-stroke"  x="-42.5" y="-42.5" rx="0" ry="0" width="85" height="85" />
</g>
		<g transform="matrix(0.78 0 0 0.78 -239.57 3.59)" id="1_6"  >
<rect style="stroke: rgb(0,0,0); stroke-width: 1; stroke-dasharray: none; stroke-linecap: butt; stroke-dashoffset: 0; stroke-linejoin: miter; stroke-miterlimit: 4; fill: rgb(160,160,160); fill-rule: nonzero; opacity: 0.8;" vector-effect="non-scaling-stroke"  x="-42.5" y="-42.5" rx="0" ry="0" width="85" height="85" />
</g>
		<g transform="matrix(0.78 0 0 0.78 -233.35 9.81)" id="1_7"  >
<rect style="stroke: rgb(0,0,0); stroke-width: 1; stroke-dasharray: none; stroke-linecap: butt; stroke-dashoffset: 0; stroke-linejoin: miter; stroke-miterlimit: 4; fill: rgb(224,224,224); fill-rule: nonzero; opacity: 0.8;" vector-effect="non-scaling-stroke"  x="-42.5" y="-42.5" rx="0" ry="0" width="85" height="85" />
</g>
		<g transform="matrix(0.78 0 0 0.78 -162.93 -33.76)" id="2_0"  >
<rect style="stroke: rgb(0,0,0); stroke-width: 1; stroke-dasharray: none; stroke-linecap: butt; stroke-dashoffset: 0; stroke-linejoin: miter; stroke-miterlimit: 4; fill: rgb(160,160,160); fill-rule: nonzero; opacity: 0.8;" vector-effect="non-scaling-stroke"  x="-21" y="-21" rx="0" ry="0" width="42" height="42" />
</g>
		<g transform="matrix(0.78 0 0 0.78 -156.71 -27.53)" id="2_1"  >
<rect style="stroke: rgb(0,0,0); stroke-width: 1; stroke-dasharray: none; stroke-linecap: butt; stroke-dashoffset: 0; stroke-linejoin: miter; stroke-miterlimit: 4; fill: rgb(224,224,224); fill-rule: nonzero; opacity: 0.8;" vector-effect="non-scaling-stroke"  x="-21" y="-21" rx="0" ry="0" width="42" height="42" />
</g>
		<g transform="matrix(0.78 0 0 0.78 -150.48 -21.31)" id="2_2"  >
<rect style="stroke: rgb(0,0,0); stroke-width: 1; stroke-dasharray: none; stroke-linecap: butt; stroke-dashoffset: 0; stroke-linejoin: miter; stroke-miterlimit: 4; fill: rgb(160,160,160); fill-rule: nonzero; opacity: 0.8;" vector-effect="non-scaling-stroke"  x="-21" y="-21" rx="0" ry="0" width="42" height="42" />
</g>
		<g transform="matrix(0.78 0 0 0.78 -144.26 -15.09)" id="2_3"  >
<rect style="stroke: rgb(0,0,0); stroke-width: 1; stroke-dasharray: none; stroke-linecap: butt; stroke-dashoffset: 0; stroke-linejoin: miter; stroke-miterlimit: 4; fill: rgb(224,224,224); fill-rule: nonzero; opacity: 0.8;" vector-effect="non-scaling-stroke"  x="-21" y="-21" rx="0" ry="0" width="42" height="42" />
</g>
		<g transform="matrix(0.78 0 0 0.78 -138.03 -8.86)" id="2_4"  >
<rect style="stroke: rgb(0,0,0); stroke-width: 1; stroke-dasharray: none; stroke-linecap: butt; stroke-dashoffset: 0; stroke-linejoin: miter; stroke-miterlimit: 4; fill: rgb(160,160,160); fill-rule: nonzero; opacity: 0.8;" vector-effect="non-scaling-stroke"  x="-21" y="-21" rx="0" ry="0" width="42" height="42" />
</g>
		<g transform="matrix(0.78 0 0 0.78 -131.81 -2.64)" id="2_5"  >
<rect style="stroke: rgb(0,0,0); stroke-width: 1; stroke-dasharray: none; stroke-linecap: butt; stroke-dashoffset: 0; stroke-linejoin: miter; stroke-miterlimit: 4; fill: rgb(224,224,224); fill-rule: nonzero; opacity: 0.8;" vector-effect="non-scaling-stroke"  x="-21" y="-21" rx="0" ry="0" width="42" height="42" />
</g>
		<g transform="matrix(0.78 0 0 0.78 -125.58 3.59)" id="2_6"  >
<rect style="stroke: rgb(0,0,0); stroke-width: 1; stroke-dasharray: none; stroke-linecap: butt; stroke-dashoffset: 0; stroke-linejoin: miter; stroke-miterlimit: 4; fill: rgb(160,160,160); fill-rule: nonzero; opacity: 0.8;" vector-effect="non-scaling-stroke"  x="-21" y="-21" rx="0" ry="0" width="42" height="42" />
</g>
		<g transform="matrix(0.78 0 0 0.78 -119.36 9.81)" id="2_7"  >
<rect style="stroke: rgb(0,0,0); stroke-width: 1; stroke-dasharray: none; stroke-linecap: butt; stroke-dashoffset: 0; stroke-linejoin: miter; stroke-miterlimit: 4; fill: rgb(224,224,224); fill-rule: nonzero; opacity: 0.8;" vector-effect="non-scaling-stroke"  x="-21" y="-21" rx="0" ry="0" width="42" height="42" />
</g>
		<g transform="matrix(0.78 0 0 0.78 -83.95 -58.66)" id="3_0"  >
<rect style="stroke: rgb(0,0,0); stroke-width: 1; stroke-dasharray: none; stroke-linecap: butt; stroke-dashoffset: 0; stroke-linejoin: miter; stroke-miterlimit: 4; fill: rgb(160,160,160); fill-rule: nonzero; opacity: 0.8;" vector-effect="non-scaling-stroke"  x="-18.5" y="-18.5" rx="0" ry="0" width="37" height="37" />
</g>
		<g transform="matrix(0.78 0 0 0.78 -77.73 -52.43)" id="3_1"  >
<rect style="stroke: rgb(0,0,0); stroke-width: 1; stroke-dasharray: none; stroke-linecap: butt; stroke-dashoffset: 0; stroke-linejoin: miter; stroke-miterlimit: 4; fill: rgb(224,224,224); fill-rule: nonzero; opacity: 0.8;" vector-effect="non-scaling-stroke"  x="-18.5" y="-18.5" rx="0" ry="0" width="37" height="37" />
</g>
		<g transform="matrix(0.78 0 0 0.78 -71.5 -46.21)" id="3_2"  >
<rect style="stroke: rgb(0,0,0); stroke-width: 1; stroke-dasharray: none; stroke-linecap: butt; stroke-dashoffset: 0; stroke-linejoin: miter; stroke-miterlimit: 4; fill: rgb(160,160,160); fill-rule: nonzero; opacity: 0.8;" vector-effect="non-scaling-stroke"  x="-18.5" y="-18.5" rx="0" ry="0" width="37" height="37" />
</g>
		<g transform="matrix(0.78 0 0 0.78 -65.28 -39.98)" id="3_3"  >
<rect style="stroke: rgb(0,0,0); stroke-width: 1; stroke-dasharray: none; stroke-linecap: butt; stroke-dashoffset: 0; stroke-linejoin: miter; stroke-miterlimit: 4; fill: rgb(224,224,224); fill-rule: nonzero; opacity: 0.8;" vector-effect="non-scaling-stroke"  x="-18.5" y="-18.5" rx="0" ry="0" width="37" height="37" />
</g>
		<g transform="matrix(0.78 0 0 0.78 -59.06 -33.76)" id="3_4"  >
<rect style="stroke: rgb(0,0,0); stroke-width: 1; stroke-dasharray: none; stroke-linecap: butt; stroke-dashoffset: 0; stroke-linejoin: miter; stroke-miterlimit: 4; fill: rgb(160,160,160); fill-rule: nonzero; opacity: 0.8;" vector-effect="non-scaling-stroke"  x="-18.5" y="-18.5" rx="0" ry="0" width="37" height="37" />
</g>
		<g transform="matrix(0.78 0 0 0.78 -52.83 -27.53)" id="3_5"  >
<rect style="stroke: rgb(0,0,0); stroke-width: 1; stroke-dasharray: none; stroke-linecap: butt; stroke-dashoffset: 0; stroke-linejoin: miter; stroke-miterlimit: 4; fill: rgb(224,224,224); fill-rule: nonzero; opacity: 0.8;" vector-effect="non-scaling-stroke"  x="-18.5" y="-18.5" rx="0" ry="0" width="37" height="37" />
</g>
		<g transform="matrix(0.78 0 0 0.78 -46.61 -21.31)" id="3_6"  >
<rect style="stroke: rgb(0,0,0); stroke-width: 1; stroke-dasharray: none; stroke-linecap: butt; stroke-dashoffset: 0; stroke-linejoin: miter; stroke-miterlimit: 4; fill: rgb(160,160,160); fill-rule: nonzero; opacity: 0.8;" vector-effect="non-scaling-stroke"  x="-18.5" y="-18.5" rx="0" ry="0" width="37" height="37" />
</g>
		<g transform="matrix(0.78 0 0 0.78 -40.38 -15.09)" id="3_7"  >
<rect style="stroke: rgb(0,0,0); stroke-width: 1; stroke-dasharray: none; stroke-linecap: butt; stroke-dashoffset: 0; stroke-linejoin: miter; stroke-miterlimit: 4; fill: rgb(224,224,224); fill-rule: nonzero; opacity: 0.8;" vector-effect="non-scaling-stroke"  x="-18.5" y="-18.5" rx="0" ry="0" width="37" height="37" />
</g>
		<g transform="matrix(0.78 0 0 0.78 -34.16 -8.86)" id="3_8"  >
<rect style="stroke: rgb(0,0,0); stroke-width: 1; stroke-dasharray: none; stroke-linecap: butt; stroke-dashoffset: 0; stroke-linejoin: miter; stroke-miterlimit: 4; fill: rgb(160,160,160); fill-rule: nonzero; opacity: 0.8;" vector-effect="non-scaling-stroke"  x="-18.5" y="-18.5" rx="0" ry="0" width="37" height="37" />
</g>
		<g transform="matrix(0.78 0 0 0.78 -27.93 -2.64)" id="3_9"  >
<rect style="stroke: rgb(0,0,0); stroke-width: 1; stroke-dasharray: none; stroke-linecap: butt; stroke-dashoffset: 0; stroke-linejoin: miter; stroke-miterlimit: 4; fill: rgb(224,224,224); fill-rule: nonzero; opacity: 0.8;" vector-effect="non-scaling-stroke"  x="-18.5" y="-18.5" rx="0" ry="0" width="37" height="37" />
</g>
		<g transform="matrix(0.78 0 0 0.78 -21.71 3.59)" id="3_10"  >
<rect style="stroke: rgb(0,0,0); stroke-width: 1; stroke-dasharray: none; stroke-linecap: butt; stroke-dashoffset: 0; stroke-linejoin: miter; stroke-miterlimit: 4; fill: rgb(160,160,160); fill-rule: nonzero; opacity: 0.8;" vector-effect="non-scaling-stroke"  x="-18.5" y="-18.5" rx="0" ry="0" width="37" height="37" />
</g>
		<g transform="matrix(0.78 0 0 0.78 -15.48 9.81)" id="3_11"  >
<rect style="stroke: rgb(0,0,0); stroke-width: 1; stroke-dasharray: none; stroke-linecap: butt; stroke-dashoffset: 0; stroke-linejoin: miter; stroke-miterlimit: 4; fill: rgb(224,224,224); fill-rule: nonzero; opacity: 0.8;" vector-effect="non-scaling-stroke"  x="-18.5" y="-18.5" rx="0" ry="0" width="37" height="37" />
</g>
		<g transform="matrix(0.78 0 0 0.78 -9.26 16.04)" id="3_12"  >
<rect style="stroke: rgb(0,0,0); stroke-width: 1; stroke-dasharray: none; stroke-linecap: butt; stroke-dashoffset: 0; stroke-linejoin: miter; stroke-miterlimit: 4; fill: rgb(160,160,160); fill-rule: nonzero; opacity: 0.8;" vector-effect="non-scaling-stroke"  x="-18.5" y="-18.5" rx="0" ry="0" width="37" height="37" />
</g>
		<g transform="matrix(0.78 0 0 0.78 -3.03 22.26)" id="3_13"  >
<rect style="stroke: rgb(0,0,0); stroke-width: 1; stroke-dasharray: none; stroke-linecap: butt; stroke-dashoffset: 0; stroke-linejoin: miter; stroke-miterlimit: 4; fill: rgb(224,224,224); fill-rule: nonzero; opacity: 0.8;" vector-effect="non-scaling-stroke"  x="-18.5" y="-18.5" rx="0" ry="0" width="37" height="37" />
</g>
		<g transform="matrix(0.78 0 0 0.78 3.19 28.49)" id="3_14"  >
<rect style="stroke: rgb(0,0,0); stroke-width: 1; stroke-dasharray: none; stroke-linecap: butt; stroke-dashoffset: 0; stroke-linejoin: miter; stroke-miterlimit: 4; fill: rgb(160,160,160); fill-rule: nonzero; opacity: 0.8;" vector-effect="non-scaling-stroke"  x="-18.5" y="-18.5" rx="0" ry="0" width="37" height="37" />
</g>
		<g transform="matrix(0.78 0 0 0.78 9.42 34.71)" id="3_15"  >
<rect style="stroke: rgb(0,0,0); stroke-width: 1; stroke-dasharray: none; stroke-linecap: butt; stroke-dashoffset: 0; stroke-linejoin: miter; stroke-miterlimit: 4; fill: rgb(224,224,224); fill-rule: nonzero; opacity: 0.8;" vector-effect="non-scaling-stroke"  x="-18.5" y="-18.5" rx="0" ry="0" width="37" height="37" />
</g>
		<g transform="matrix(0.78 0 0 0.78 15.25 -58.66)" id="4_0"  >
<rect style="stroke: rgb(0,0,0); stroke-width: 1; stroke-dasharray: none; stroke-linecap: butt; stroke-dashoffset: 0; stroke-linejoin: miter; stroke-miterlimit: 4; fill: rgb(160,160,160); fill-rule: nonzero; opacity: 0.8;" vector-effect="non-scaling-stroke"  x="-9" y="-9" rx="0" ry="0" width="18" height="18" />
</g>
		<g transform="matrix(0.78 0 0 0.78 21.48 -52.43)" id="4_1"  >
<rect style="stroke: rgb(0,0,0); stroke-width: 1; stroke-dasharray: none; stroke-linecap: butt; stroke-dashoffset: 0; stroke-linejoin: miter; stroke-miterlimit: 4; fill: rgb(224,224,224); fill-rule: nonzero; opacity: 0.8;" vector-effect="non-scaling-stroke"  x="-9" y="-9" rx="0" ry="0" width="18" height="18" />
</g>
		<g transform="matrix(0.78 0 0 0.78 27.7 -46.21)" id="4_2"  >
<rect style="stroke: rgb(0,0,0); stroke-width: 1; stroke-dasharray: none; stroke-linecap: butt; stroke-dashoffset: 0; stroke-linejoin: miter; stroke-miterlimit: 4; fill: rgb(160,160,160); fill-rule: nonzero; opacity: 0.8;" vector-effect="non-scaling-stroke"  x="-9" y="-9" rx="0" ry="0" width="18" height="18" />
</g>
		<g transform="matrix(0.78 0 0 0.78 33.93 -39.98)" id="4_3"  >
<rect style="stroke: rgb(0,0,0); stroke-width: 1; stroke-dasharray: none; stroke-linecap: butt; stroke-dashoffset: 0; stroke-linejoin: miter; stroke-miterlimit: 4; fill: rgb(224,224,224); fill-rule: nonzero; opacity: 0.8;" vector-effect="non-scaling-stroke"  x="-9" y="-9" rx="0" ry="0" width="18" height="18" />
</g>
		<g transform="matrix(0.78 0 0 0.78 40.15 -33.76)" id="4_4"  >
<rect style="stroke: rgb(0,0,0); stroke-width: 1; stroke-dasharray: none; stroke-linecap: butt; stroke-dashoffset: 0; stroke-linejoin: miter; stroke-miterlimit: 4; fill: rgb(160,160,160); fill-rule: nonzero; opacity: 0.8;" vector-effect="non-scaling-stroke"  x="-9" y="-9" rx="0" ry="0" width="18" height="18" />
</g>
		<g transform="matrix(0.78 0 0 0.78 46.38 -27.53)" id="4_5"  >
<rect style="stroke: rgb(0,0,0); stroke-width: 1; stroke-dasharray: none; stroke-linecap: butt; stroke-dashoffset: 0; stroke-linejoin: miter; stroke-miterlimit: 4; fill: rgb(224,224,224); fill-rule: nonzero; opacity: 0.8;" vector-effect="non-scaling-stroke"  x="-9" y="-9" rx="0" ry="0" width="18" height="18" />
</g>
		<g transform="matrix(0.78 0 0 0.78 52.6 -21.31)" id="4_6"  >
<rect style="stroke: rgb(0,0,0); stroke-width: 1; stroke-dasharray: none; stroke-linecap: butt; stroke-dashoffset: 0; stroke-linejoin: miter; stroke-miterlimit: 4; fill: rgb(160,160,160); fill-rule: nonzero; opacity: 0.8;" vector-effect="non-scaling-stroke"  x="-9" y="-9" rx="0" ry="0" width="18" height="18" />
</g>
		<g transform="matrix(0.78 0 0 0.78 58.82 -15.09)" id="4_7"  >
<rect style="stroke: rgb(0,0,0); stroke-width: 1; stroke-dasharray: none; stroke-linecap: butt; stroke-dashoffset: 0; stroke-linejoin: miter; stroke-miterlimit: 4; fill: rgb(224,224,224); fill-rule: nonzero; opacity: 0.8;" vector-effect="non-scaling-stroke"  x="-9" y="-9" rx="0" ry="0" width="18" height="18" />
</g>
		<g transform="matrix(0.78 0 0 0.78 65.05 -8.86)" id="4_8"  >
<rect style="stroke: rgb(0,0,0); stroke-width: 1; stroke-dasharray: none; stroke-linecap: butt; stroke-dashoffset: 0; stroke-linejoin: miter; stroke-miterlimit: 4; fill: rgb(160,160,160); fill-rule: nonzero; opacity: 0.8;" vector-effect="non-scaling-stroke"  x="-9" y="-9" rx="0" ry="0" width="18" height="18" />
</g>
		<g transform="matrix(0.78 0 0 0.78 71.27 -2.64)" id="4_9"  >
<rect style="stroke: rgb(0,0,0); stroke-width: 1; stroke-dasharray: none; stroke-linecap: butt; stroke-dashoffset: 0; stroke-linejoin: miter; stroke-miterlimit: 4; fill: rgb(224,224,224); fill-rule: nonzero; opacity: 0.8;" vector-effect="non-scaling-stroke"  x="-9" y="-9" rx="0" ry="0" width="18" height="18" />
</g>
		<g transform="matrix(0.78 0 0 0.78 77.5 3.59)" id="4_10"  >
<rect style="stroke: rgb(0,0,0); stroke-width: 1; stroke-dasharray: none; stroke-linecap: butt; stroke-dashoffset: 0; stroke-linejoin: miter; stroke-miterlimit: 4; fill: rgb(160,160,160); fill-rule: nonzero; opacity: 0.8;" vector-effect="non-scaling-stroke"  x="-9" y="-9" rx="0" ry="0" width="18" height="18" />
</g>
		<g transform="matrix(0.78 0 0 0.78 83.72 9.81)" id="4_11"  >
<rect style="stroke: rgb(0,0,0); stroke-width: 1; stroke-dasharray: none; stroke-linecap: butt; stroke-dashoffset: 0; stroke-linejoin: miter; stroke-miterlimit: 4; fill: rgb(224,224,224); fill-rule: nonzero; opacity: 0.8;" vector-effect="non-scaling-stroke"  x="-9" y="-9" rx="0" ry="0" width="18" height="18" />
</g>
		<g transform="matrix(0.78 0 0 0.78 89.95 16.04)" id="4_12"  >
<rect style="stroke: rgb(0,0,0); stroke-width: 1; stroke-dasharray: none; stroke-linecap: butt; stroke-dashoffset: 0; stroke-linejoin: miter; stroke-miterlimit: 4; fill: rgb(160,160,160); fill-rule: nonzero; opacity: 0.8;" vector-effect="non-scaling-stroke"  x="-9" y="-9" rx="0" ry="0" width="18" height="18" />
</g>
		<g transform="matrix(0.78 0 0 0.78 96.17 22.26)" id="4_13"  >
<rect style="stroke: rgb(0,0,0); stroke-width: 1; stroke-dasharray: none; stroke-linecap: butt; stroke-dashoffset: 0; stroke-linejoin: miter; stroke-miterlimit: 4; fill: rgb(224,224,224); fill-rule: nonzero; opacity: 0.8;" vector-effect="non-scaling-stroke"  x="-9" y="-9" rx="0" ry="0" width="18" height="18" />
</g>
		<g transform="matrix(0.78 0 0 0.78 102.4 28.49)" id="4_14"  >
<rect style="stroke: rgb(0,0,0); stroke-width: 1; stroke-dasharray: none; stroke-linecap: butt; stroke-dashoffset: 0; stroke-linejoin: miter; stroke-miterlimit: 4; fill: rgb(160,160,160); fill-rule: nonzero; opacity: 0.8;" vector-effect="non-scaling-stroke"  x="-9" y="-9" rx="0" ry="0" width="18" height="18" />
</g>
		<g transform="matrix(0.78 0 0 0.78 108.62 34.71)" id="4_15"  >
<rect style="stroke: rgb(0,0,0); stroke-width: 1; stroke-dasharray: none; stroke-linecap: butt; stroke-dashoffset: 0; stroke-linejoin: miter; stroke-miterlimit: 4; fill: rgb(224,224,224); fill-rule: nonzero; opacity: 0.8;" vector-effect="non-scaling-stroke"  x="-9" y="-9" rx="0" ry="0" width="18" height="18" />
</g>
		<g transform="matrix(0.78 0 0 0.78 -356.42 -1.34)" id="conv_0"  >
<rect style="stroke: rgb(0,0,0); stroke-opacity: 0.8; stroke-width: 1; stroke-dasharray: none; stroke-linecap: butt; stroke-dashoffset: 0; stroke-linejoin: miter; stroke-miterlimit: 4; fill: rgb(0,0,0); fill-opacity: 0; fill-rule: nonzero; opacity: 1;" vector-effect="non-scaling-stroke"  x="-3" y="-3" rx="0" ry="0" width="6" height="6" />
</g>
		<g transform="matrix(0.78 0 0 0.78 -211.01 1.19)" id="conv_1"  >
<rect style="stroke: rgb(0,0,0); stroke-opacity: 0.8; stroke-width: 1; stroke-dasharray: none; stroke-linecap: butt; stroke-dashoffset: 0; stroke-linejoin: miter; stroke-miterlimit: 4; fill: rgb(0,0,0); fill-opacity: 0; fill-rule: nonzero; opacity: 1;" vector-effect="non-scaling-stroke"  x="-1" y="-1" rx="0" ry="0" width="2" height="2" />
</g>
		<g transform="matrix(0.78 0 0 0.78 -128.7 15.23)" id="conv_2"  >
<rect style="stroke: rgb(0,0,0); stroke-opacity: 0.8; stroke-width: 1; stroke-dasharray: none; stroke-linecap: butt; stroke-dashoffset: 0; stroke-linejoin: miter; stroke-miterlimit: 4; fill: rgb(0,0,0); fill-opacity: 0; fill-rule: nonzero; opacity: 1;" vector-effect="non-scaling-stroke"  x="-3" y="-3" rx="0" ry="0" width="6" height="6" />
</g>
		<g transform="matrix(0.78 0 0 0.78 15.3 43.48)" id="conv_3"  >
<rect style="stroke: rgb(0,0,0); stroke-opacity: 0.8; stroke-width: 1; stroke-dasharray: none; stroke-linecap: butt; stroke-dashoffset: 0; stroke-linejoin: miter; stroke-miterlimit: 4; fill: rgb(0,0,0); fill-opacity: 0; fill-rule: nonzero; opacity: 1;" vector-effect="non-scaling-stroke"  x="-4" y="-4" rx="0" ry="0" width="8" height="8" />
</g>
		<g transform="matrix(0.78 0 0 0.78 -283.74 7.63)" id="conv_0"  >
<line style="stroke: rgb(0,0,0); stroke-opacity: 0.8; stroke-width: 0.5; stroke-dasharray: none; stroke-linecap: butt; stroke-dashoffset: 0; stroke-linejoin: miter; stroke-miterlimit: 4; fill: rgb(0,0,0); fill-rule: nonzero; opacity: 1;" vector-effect="non-scaling-stroke"  x1="-90.40076242985126" y1="-8.53370414047751" x2="90.40076242985126" y2="8.53370414047751" />
</g>
		<g transform="matrix(0.78 0 0 0.78 -283.74 5.3)" id="conv_0"  >
<line style="stroke: rgb(0,0,0); stroke-opacity: 0.8; stroke-width: 0.5; stroke-dasharray: none; stroke-linecap: butt; stroke-dashoffset: 0; stroke-linejoin: miter; stroke-miterlimit: 4; fill: rgb(0,0,0); fill-rule: nonzero; opacity: 1;" vector-effect="non-scaling-stroke"  x1="-90.40076242985126" y1="-11.53370414047751" x2="90.40076242985126" y2="11.53370414047751" />
</g>
		<g transform="matrix(0.78 0 0 0.78 -159.14 3.71)" id="conv_1"  >
<line style="stroke: rgb(0,0,0); stroke-opacity: 0.8; stroke-width: 0.5; stroke-dasharray: none; stroke-linecap: butt; stroke-dashoffset: 0; stroke-linejoin: miter; stroke-miterlimit: 4; fill: rgb(0,0,0); fill-rule: nonzero; opacity: 1;" vector-effect="non-scaling-stroke"  x1="-65.65960088414002" y1="-2.2361771314367616" x2="65.65960088414002" y2="2.2361771314367616" />
</g>
		<g transform="matrix(0.78 0 0 0.78 -159.14 2.93)" id="conv_1"  >
<line style="stroke: rgb(0,0,0); stroke-opacity: 0.8; stroke-width: 0.5; stroke-dasharray: none; stroke-linecap: butt; stroke-dashoffset: 0; stroke-linejoin: miter; stroke-miterlimit: 4; fill: rgb(0,0,0); fill-rule: nonzero; opacity: 1;" vector-effect="non-scaling-stroke"  x1="-65.65960088414002" y1="-3.2361771314367616" x2="65.65960088414002" y2="3.2361771314367616" />
</g>
		<g transform="matrix(0.78 0 0 0.78 -63.28 28.92)" id="conv_2"  >
<line style="stroke: rgb(0,0,0); stroke-opacity: 0.8; stroke-width: 0.5; stroke-dasharray: none; stroke-linecap: butt; stroke-dashoffset: 0; stroke-linejoin: miter; stroke-miterlimit: 4; fill: rgb(0,0,0); fill-rule: nonzero; opacity: 1;" vector-effect="non-scaling-stroke"  x1="-81.08318344279559" y1="-14.596722697759162" x2="81.08318344279559" y2="14.596722697759162" />
</g>
		<g transform="matrix(0.78 0 0 0.78 -63.28 26.59)" id="conv_2"  >
<line style="stroke: rgb(0,0,0); stroke-opacity: 0.8; stroke-width: 0.5; stroke-dasharray: none; stroke-linecap: butt; stroke-dashoffset: 0; stroke-linejoin: miter; stroke-miterlimit: 4; fill: rgb(0,0,0); fill-rule: nonzero; opacity: 1;" vector-effect="non-scaling-stroke"  x1="-81.08318344279559" y1="-17.596722697759162" x2="81.08318344279559" y2="17.596722697759162" />
</g>
		<g transform="matrix(0.78 0 0 0.78 65.35 43.37)" id="conv_3"  >
<line style="stroke: rgb(0,0,0); stroke-opacity: 0.8; stroke-width: 0.5; stroke-dasharray: none; stroke-linecap: butt; stroke-dashoffset: 0; stroke-linejoin: miter; stroke-miterlimit: 4; fill: rgb(0,0,0); fill-rule: nonzero; opacity: 1;" vector-effect="non-scaling-stroke"  x1="-60.31487968860438" y1="4.137175812991643" x2="60.31487968860438" y2="-4.137175812991643" />
</g>
		<g transform="matrix(0.78 0 0 0.78 65.35 40.26)" id="conv_3"  >
<line style="stroke: rgb(0,0,0); stroke-opacity: 0.8; stroke-width: 0.5; stroke-dasharray: none; stroke-linecap: butt; stroke-dashoffset: 0; stroke-linejoin: miter; stroke-miterlimit: 4; fill: rgb(0,0,0); fill-rule: nonzero; opacity: 1;" vector-effect="non-scaling-stroke"  x1="-60.31487968860438" y1="0.13717581299164294" x2="60.31487968860438" y2="-0.13717581299164294" />
</g>
		<g transform="matrix(0.78 0 0 0.78 211.33 -11.97)" id="fc_0"  >
<polygon style="stroke: rgb(0,0,0); stroke-width: 1; stroke-dasharray: none; stroke-linecap: butt; stroke-dashoffset: 0; stroke-linejoin: miter; stroke-miterlimit: 4; fill: rgb(224,224,224); fill-rule: nonzero; opacity: 0.8;" vector-effect="non-scaling-stroke"  points="-113,-108 -103,-108 113,108 103,108 " />
</g>
		<g transform="matrix(0.78 0 0 0.78 323.37 -11.97)" id="fc_1"  >
<polygon style="stroke: rgb(0,0,0); stroke-width: 1; stroke-dasharray: none; stroke-linecap: butt; stroke-dashoffset: 0; stroke-linejoin: miter; stroke-miterlimit: 4; fill: rgb(224,224,224); fill-rule: nonzero; opacity: 0.8;" vector-effect="non-scaling-stroke"  points="-29,-24 -19,-24 29,24 19,24 " />
</g>
		<g transform="matrix(0.78 0 0 0.78 360.72 -11.97)" id="fc_2"  >
<polygon style="stroke: rgb(0,0,0); stroke-width: 1; stroke-dasharray: none; stroke-linecap: butt; stroke-dashoffset: 0; stroke-linejoin: miter; stroke-miterlimit: 4; fill: rgb(224,224,224); fill-rule: nonzero; opacity: 0.8;" vector-effect="non-scaling-stroke"  points="-17,-12 -7,-12 17,12 7,12 " />
</g>
		<g transform="matrix(0.78 0 0 0.78 388.73 -11.97)" id="fc_3"  >
<polygon style="stroke: rgb(0,0,0); stroke-width: 1; stroke-dasharray: none; stroke-linecap: butt; stroke-dashoffset: 0; stroke-linejoin: miter; stroke-miterlimit: 4; fill: rgb(224,224,224); fill-rule: nonzero; opacity: 0.8;" vector-effect="non-scaling-stroke"  points="-17,-12 -7,-12 17,12 7,12 " />
</g>
		<g transform="matrix(0.78 0 0 0.78 408.57 -11.97)" id="fc_4"  >
<polygon style="stroke: rgb(0,0,0); stroke-width: 1; stroke-dasharray: none; stroke-linecap: butt; stroke-dashoffset: 0; stroke-linejoin: miter; stroke-miterlimit: 4; fill: rgb(224,224,224); fill-rule: nonzero; opacity: 0.8;" vector-effect="non-scaling-stroke"  points="-6.5,-1.5 3.5,-1.5 6.5,1.5 -3.5,1.5 " />
</g>
		<g transform="matrix(0.78 0 0 0.78 203.55 56.89)" id="fc_0"  >
<line style="stroke: rgb(0,0,0); stroke-opacity: 0.8; stroke-width: 0.5; stroke-dasharray: none; stroke-linecap: butt; stroke-dashoffset: 0; stroke-linejoin: miter; stroke-miterlimit: 4; fill: rgb(0,0,0); fill-rule: nonzero; opacity: 1;" vector-effect="non-scaling-stroke"  x1="-113" y1="-19.5" x2="113" y2="19.5" />
</g>
		<g transform="matrix(0.78 0 0 0.78 72.83 -80.83)" id="fc_0"  >
<line style="stroke: rgb(0,0,0); stroke-opacity: 0.8; stroke-width: 0.5; stroke-dasharray: none; stroke-linecap: butt; stroke-dashoffset: 0; stroke-linejoin: miter; stroke-miterlimit: 4; fill: rgb(0,0,0); fill-rule: nonzero; opacity: 1;" vector-effect="non-scaling-stroke"  x1="-65" y1="19.5" x2="65" y2="-19.5" />
</g>
		<g transform="matrix(0.78 0 0 0.78 318.7 39.38)" id="fc_1"  >
<line style="stroke: rgb(0,0,0); stroke-opacity: 0.8; stroke-width: 0.5; stroke-dasharray: none; stroke-linecap: butt; stroke-dashoffset: 0; stroke-linejoin: miter; stroke-miterlimit: 4; fill: rgb(0,0,0); fill-rule: nonzero; opacity: 1;" vector-effect="non-scaling-stroke"  x1="-25" y1="42" x2="25" y2="-42" />
</g>
		<g transform="matrix(0.78 0 0 0.78 216 -63.33)" id="fc_1"  >
<line style="stroke: rgb(0,0,0); stroke-opacity: 0.8; stroke-width: 0.5; stroke-dasharray: none; stroke-linecap: butt; stroke-dashoffset: 0; stroke-linejoin: miter; stroke-miterlimit: 4; fill: rgb(0,0,0); fill-rule: nonzero; opacity: 1;" vector-effect="non-scaling-stroke"  x1="-109" y1="-42" x2="109" y2="42" />
</g>
		<g transform="matrix(0.78 0 0 0.78 356.05 2.03)" id="fc_2"  >
<line style="stroke: rgb(0,0,0); stroke-opacity: 0.8; stroke-width: 0.5; stroke-dasharray: none; stroke-linecap: butt; stroke-dashoffset: 0; stroke-linejoin: miter; stroke-miterlimit: 4; fill: rgb(0,0,0); fill-rule: nonzero; opacity: 1;" vector-effect="non-scaling-stroke"  x1="-13" y1="6" x2="13" y2="-6" />
</g>
		<g transform="matrix(0.78 0 0 0.78 328.04 -25.98)" id="fc_2"  >
<line style="stroke: rgb(0,0,0); stroke-opacity: 0.8; stroke-width: 0.5; stroke-dasharray: none; stroke-linecap: butt; stroke-dashoffset: 0; stroke-linejoin: miter; stroke-miterlimit: 4; fill: rgb(0,0,0); fill-rule: nonzero; opacity: 1;" vector-effect="non-scaling-stroke"  x1="-25" y1="-6" x2="25" y2="6" />
</g>
		<g transform="matrix(0.78 0 0 0.78 384.06 -2.64)" id="fc_3"  >
<line style="stroke: rgb(0,0,0); stroke-opacity: 0.8; stroke-width: 0.5; stroke-dasharray: none; stroke-linecap: butt; stroke-dashoffset: 0; stroke-linejoin: miter; stroke-miterlimit: 4; fill: rgb(0,0,0); fill-rule: nonzero; opacity: 1;" vector-effect="non-scaling-stroke"  x1="-13" y1="0" x2="13" y2="0" />
</g>
		<g transform="matrix(0.78 0 0 0.78 365.39 -21.31)" id="fc_3"  >
<line style="stroke: rgb(0,0,0); stroke-opacity: 0.8; stroke-width: 0.5; stroke-dasharray: none; stroke-linecap: butt; stroke-dashoffset: 0; stroke-linejoin: miter; stroke-miterlimit: 4; fill: rgb(0,0,0); fill-rule: nonzero; opacity: 1;" vector-effect="non-scaling-stroke"  x1="-13" y1="0" x2="13" y2="0" />
</g>
		<g transform="matrix(0.78 0 0 0.78 403.91 -6.72)" id="fc_4"  >
<line style="stroke: rgb(0,0,0); stroke-opacity: 0.8; stroke-width: 0.5; stroke-dasharray: none; stroke-linecap: butt; stroke-dashoffset: 0; stroke-linejoin: miter; stroke-miterlimit: 4; fill: rgb(0,0,0); fill-rule: nonzero; opacity: 1;" vector-effect="non-scaling-stroke"  x1="-2.5" y1="5.25" x2="2.5" y2="-5.25" />
</g>
		<g transform="matrix(0.78 0 0 0.78 393.4 -17.22)" id="fc_4"  >
<line style="stroke: rgb(0,0,0); stroke-opacity: 0.8; stroke-width: 0.5; stroke-dasharray: none; stroke-linecap: butt; stroke-dashoffset: 0; stroke-linejoin: miter; stroke-miterlimit: 4; fill: rgb(0,0,0); fill-rule: nonzero; opacity: 1;" vector-effect="non-scaling-stroke"  x1="-13" y1="-5.25" x2="13" y2="5.25" />
</g>
		<g transform="matrix(0.78 0 0 0.78 -276.92 115.31)" style=""  >
		<text xml:space="preserve" font-family="sans-serif" font-size="16" font-style="normal" font-weight="normal" style="stroke: none; stroke-width: 1; stroke-dasharray: none; stroke-linecap: butt; stroke-dashoffset: 0; stroke-linejoin: miter; stroke-miterlimit: 4; fill: rgb(0,0,0); fill-rule: nonzero; opacity: 1; white-space: pre;" ><tspan x="-42.25" y="5.03" >Convolution</tspan></text>
</g>
		<g transform="matrix(0.78 0 0 0.78 -156.09 115.31)" style=""  >
		<text xml:space="preserve" font-family="sans-serif" font-size="16" font-style="normal" font-weight="normal" style="stroke: none; stroke-width: 1; stroke-dasharray: none; stroke-linecap: butt; stroke-dashoffset: 0; stroke-linejoin: miter; stroke-miterlimit: 4; fill: rgb(0,0,0); fill-rule: nonzero; opacity: 1; white-space: pre;" ><tspan x="-33.79" y="5.03" >Max-Pool</tspan></text>
</g>
		<g transform="matrix(0.78 0 0 0.78 -48.94 115.31)" style=""  >
		<text xml:space="preserve" font-family="sans-serif" font-size="16" font-style="normal" font-weight="normal" style="stroke: none; stroke-width: 1; stroke-dasharray: none; stroke-linecap: butt; stroke-dashoffset: 0; stroke-linejoin: miter; stroke-miterlimit: 4; fill: rgb(0,0,0); fill-rule: nonzero; opacity: 1; white-space: pre;" ><tspan x="-42.25" y="5.03" >Convolution</tspan></text>
</g>
		<g transform="matrix(0.78 0 0 0.78 57.49 115.31)" style=""  >
		<text xml:space="preserve" font-family="sans-serif" font-size="16" font-style="normal" font-weight="normal" style="stroke: none; stroke-width: 1; stroke-dasharray: none; stroke-linecap: butt; stroke-dashoffset: 0; stroke-linejoin: miter; stroke-miterlimit: 4; fill: rgb(0,0,0); fill-rule: nonzero; opacity: 1; white-space: pre;" ><tspan x="-33.79" y="5.03" >Max-Pool</tspan></text>
</g>
		<g transform="matrix(0.78 0 0 0.78 168.89 115.31)" style=""  >
		<text xml:space="preserve" font-family="sans-serif" font-size="16" font-style="normal" font-weight="normal" style="stroke: none; stroke-width: 1; stroke-dasharray: none; stroke-linecap: butt; stroke-dashoffset: 0; stroke-linejoin: miter; stroke-miterlimit: 4; fill: rgb(0,0,0); fill-rule: nonzero; opacity: 1; white-space: pre;" ><tspan x="-24.46" y="5.03" >Flatten</tspan></text>
</g>
		<g transform="matrix(0.78 0 0 0.78 -396.85 -72.52)" style=""  >
		<text xml:space="preserve" font-family="sans-serif" font-size="16" font-style="normal" font-weight="normal" style="stroke: none; stroke-width: 1; stroke-dasharray: none; stroke-linecap: butt; stroke-dashoffset: 0; stroke-linejoin: miter; stroke-miterlimit: 4; fill: rgb(0,0,0); fill-rule: nonzero; opacity: 1; white-space: pre;" ><tspan x="-34.37" y="5.03" >3@90x90</tspan></text>
</g>
		<g transform="matrix(0.78 0 0 0.78 -283.25 -86.13)" style=""  >
		<text xml:space="preserve" font-family="sans-serif" font-size="16" font-style="normal" font-weight="normal" style="stroke: none; stroke-width: 1; stroke-dasharray: none; stroke-linecap: butt; stroke-dashoffset: 0; stroke-linejoin: miter; stroke-miterlimit: 4; fill: rgb(0,0,0); fill-rule: nonzero; opacity: 1; white-space: pre;" ><tspan x="-34.37" y="5.03" >8@85x85</tspan></text>
</g>
		<g transform="matrix(0.78 0 0 0.78 -152.53 -69.41)" style=""  >
		<text xml:space="preserve" font-family="sans-serif" font-size="16" font-style="normal" font-weight="normal" style="stroke: none; stroke-width: 1; stroke-dasharray: none; stroke-linecap: butt; stroke-dashoffset: 0; stroke-linejoin: miter; stroke-miterlimit: 4; fill: rgb(0,0,0); fill-rule: nonzero; opacity: 1; white-space: pre;" ><tspan x="-34.37" y="5.03" >8@42x42</tspan></text>
</g>
		<g transform="matrix(0.78 0 0 0.78 -68.15 -92.36)" style=""  >
		<text xml:space="preserve" font-family="sans-serif" font-size="16" font-style="normal" font-weight="normal" style="stroke: none; stroke-width: 1; stroke-dasharray: none; stroke-linecap: butt; stroke-dashoffset: 0; stroke-linejoin: miter; stroke-miterlimit: 4; fill: rgb(0,0,0); fill-rule: nonzero; opacity: 1; white-space: pre;" ><tspan x="-38.82" y="5.03" >16@37x37</tspan></text>
</g>
		<g transform="matrix(0.78 0 0 0.78 38.45 -84.97)" style=""  >
		<text xml:space="preserve" font-family="sans-serif" font-size="16" font-style="normal" font-weight="normal" style="stroke: none; stroke-width: 1; stroke-dasharray: none; stroke-linecap: butt; stroke-dashoffset: 0; stroke-linejoin: miter; stroke-miterlimit: 4; fill: rgb(0,0,0); fill-rule: nonzero; opacity: 1; white-space: pre;" ><tspan x="-38.82" y="5.03" >16@18x18</tspan></text>
</g>
		<g transform="matrix(0.78 0 0 0.78 143.83 -115.31)" style=""  >
		<text xml:space="preserve" font-family="sans-serif" font-size="16" font-style="normal" font-weight="normal" style="stroke: none; stroke-width: 1; stroke-dasharray: none; stroke-linecap: butt; stroke-dashoffset: 0; stroke-linejoin: miter; stroke-miterlimit: 4; fill: rgb(0,0,0); fill-rule: nonzero; opacity: 1; white-space: pre;" ><tspan x="-26.25" y="5.03" >1x5184</tspan></text>
</g>
		<g transform="matrix(0.78 0 0 0.78 317.77 -49.95)" style=""  >
		<text xml:space="preserve" font-family="sans-serif" font-size="16" font-style="normal" font-weight="normal" style="stroke: none; stroke-width: 1; stroke-dasharray: none; stroke-linecap: butt; stroke-dashoffset: 0; stroke-linejoin: miter; stroke-miterlimit: 4; fill: rgb(0,0,0); fill-rule: nonzero; opacity: 1; white-space: pre;" ><tspan x="-21.8" y="5.03" >1x256</tspan></text>
</g>
		<g transform="matrix(0.78 0 0 0.78 360.99 -40.62)" style=""  >
		<text xml:space="preserve" font-family="sans-serif" font-size="16" font-style="normal" font-weight="normal" style="stroke: none; stroke-width: 1; stroke-dasharray: none; stroke-linecap: butt; stroke-dashoffset: 0; stroke-linejoin: miter; stroke-miterlimit: 4; fill: rgb(0,0,0); fill-rule: nonzero; opacity: 1; white-space: pre;" ><tspan x="-17.35" y="5.03" >1x64</tspan></text>
</g>
		<g transform="matrix(0.78 0 0 0.78 389 -40.62)" style=""  >
		<text xml:space="preserve" font-family="sans-serif" font-size="16" font-style="normal" font-weight="normal" style="stroke: none; stroke-width: 1; stroke-dasharray: none; stroke-linecap: butt; stroke-dashoffset: 0; stroke-linejoin: miter; stroke-miterlimit: 4; fill: rgb(0,0,0); fill-rule: nonzero; opacity: 1; white-space: pre;" ><tspan x="-17.35" y="5.03" >1x64</tspan></text>
</g>
		<g transform="matrix(0.78 0 0 0.78 413.55 -32.45)" style=""  >
		<text xml:space="preserve" font-family="sans-serif" font-size="16" font-style="normal" font-weight="normal" style="stroke: none; stroke-width: 1; stroke-dasharray: none; stroke-linecap: butt; stroke-dashoffset: 0; stroke-linejoin: miter; stroke-miterlimit: 4; fill: rgb(0,0,0); fill-rule: nonzero; opacity: 1; white-space: pre;" ><tspan x="-12.9" y="5.03" >1x1</tspan></text>
</g>
</g>
</g>
</svg>